<svg xmlns="http://www.w3.org/2000/svg" viewBox="0 0 64 64" x="0px" y="0px">
    <title>ThingsBase</title>
    <g>
        <path
            d="M32,35a3,3,0,1,0,3,3A3,3,0,0,0,32,35Zm0,4a1,1,0,1,1,1-1A1,1,0,0,1,32,39Zm5.975-4.639a1,1,0,0,1-1.71,1.038,4.991,4.991,0,0,0-8.53,0,1,1,0,0,1-1.71-1.038,6.992,6.992,0,0,1,11.95,0ZM40.8,31.4a1,1,0,0,1-1.6,1.2,9,9,0,0,0-14.4,0,1,1,0,1,1-1.6-1.2,11,11,0,0,1,17.6,0ZM21.936,29.791a1,1,0,0,1-1.552-1.262,14.967,14.967,0,0,1,23.232,0,1,1,0,0,1-1.552,1.262,12.966,12.966,0,0,0-20.128,0ZM48.949,33H54.1a5,5,0,1,0,0-2H48.949a16.9,16.9,0,0,0-4.26-10.275L51.1,14.312A8.026,8.026,0,1,0,49.688,12.9l-6.413,6.413A16.9,16.9,0,0,0,33,15.051V9.9a5,5,0,1,0-2,0v5.152a16.9,16.9,0,0,0-10.275,4.26L14.312,12.9A8.026,8.026,0,1,0,12.9,14.312l6.413,6.413A16.9,16.9,0,0,0,15.051,31H9.9a5,5,0,1,0,0,2h5.152a16.9,16.9,0,0,0,4.26,10.275L12.9,49.688A8.026,8.026,0,1,0,14.312,51.1l6.413-6.413A16.9,16.9,0,0,0,31,48.949V54.1a5,5,0,1,0,2,0V48.949a16.9,16.9,0,0,0,10.275-4.26L49.688,51.1A8.026,8.026,0,1,0,51.1,49.688l-6.413-6.413A16.9,16.9,0,0,0,48.949,33ZM59,29a3,3,0,1,1-3,3A3,3,0,0,1,59,29ZM56,2a6,6,0,1,1-6,6A6.006,6.006,0,0,1,56,2ZM29,5a3,3,0,1,1,3,3A3,3,0,0,1,29,5ZM2,8a6,6,0,1,1,6,6A6.006,6.006,0,0,1,2,8ZM5,35a3,3,0,1,1,3-3A3,3,0,0,1,5,35ZM32,17A15,15,0,1,1,17,32,15.017,15.017,0,0,1,32,17ZM8,62a6,6,0,1,1,6-6A6.006,6.006,0,0,1,8,62Zm27-3a3,3,0,1,1-3-3A3,3,0,0,1,35,59Zm27-3a6,6,0,1,1-6-6A6.006,6.006,0,0,1,62,56Z" fill="#fc6720">
        </path>
    </g>
</svg>